<svg xmlns="http://www.w3.org/2000/svg" xmlns:xlink="http://www.w3.org/1999/xlink" viewBox="0 0 3849 1006"><defs><style>.cls-1{isolation:isolate;}.cls-2{fill:#5c3b6a;}.cls-3{opacity:0.62;mix-blend-mode:overlay;fill:url(#Dégradé_sans_nom_4);}.cls-4{fill:#3e2847;}.cls-5{fill:#353637;}.cls-6{fill:#50514f;}.cls-7{fill:#b9519a;}.cls-8{fill:#dbb36c;}.cls-9{fill:#292929;}.cls-10{fill:#307bd5;}.cls-11{fill:#2f1e36;}.cls-12{fill:#fff;}.cls-13{fill:#cd9077;}.cls-14{fill:#564e56;}.cls-15{fill:#aeaeae;}.cls-16{fill:#b45a9e;}.cls-17{fill:#cdcdcc;}.cls-18{fill:#fee938;}.cls-19{fill:#ffd03c;}.cls-20{fill:#fedb57;}.cls-21{fill:#eac621;}</style><radialGradient id="Dégradé_sans_nom_4" cx="1945.31" cy="579.31" fx="1919.3089252661828" fy="409.7281037295537" r="824.04" gradientTransform="matrix(1, 0, 0, 0.48, 0.62, 298.75)" gradientUnits="userSpaceOnUse"><stop offset="0.13" stop-color="#fff"/><stop offset="0.25" stop-color="#d0d0d0"/><stop offset="0.49" stop-color="#787878"/><stop offset="0.68" stop-color="#373737"/><stop offset="0.82" stop-color="#0f0f0f"/><stop offset="0.89"/></radialGradient></defs><title>abracadabra-logo</title><g class="cls-1"><g id="Shadow"><rect class="cls-2" width="3849" height="1006"/><rect class="cls-3" width="3849" height="1006"/><ellipse class="cls-4" cx="1886.5" cy="694.5" rx="460.5" ry="66.5"/></g><g id="Large_box" data-name="Large box"><polygon class="cls-5" points="1491.19 668.35 1481.78 414.18 1801.84 393 1914.81 437.71 1924.22 687.17 1615.92 706 1491.19 668.35"/><polygon class="cls-6" points="1914.81 437.71 1801.84 393 1481.78 414.18 1604.16 449.48 1914.81 437.71"/><polygon class="cls-7" points="1524.14 418.89 1799.49 402.41 1865.38 430.65 1608.87 440.07 1524.14 418.89"/><path class="cls-7" d="M1884.21,670.7a16.46,16.46,0,0,1,15.65-16.43L1892,475.33c-.24,0-.48,0-.72,0a16.46,16.46,0,0,1-16.44-15.73L1644.07,470a16.45,16.45,0,0,1-13.72,14.52l4,186.17.36,0a16.45,16.45,0,0,1,16.43,15.6l233.35-12.39A16.18,16.18,0,0,1,1884.21,670.7Z"/><path class="cls-7" d="M1583.55,679a11.73,11.73,0,0,1,10.94-8.3l-4.2-195.38c-.09,0-.17,0-.25,0a11.77,11.77,0,0,1-11.77-11.77,11.47,11.47,0,0,1,.47-3.11l-73.8-20.29a9.38,9.38,0,0,1-8.73,6.9l6.45,197.74.3,0a9.42,9.42,0,0,1,9.42,9.42,9.32,9.32,0,0,1-.46,2.75Z"/><circle class="cls-8" cx="1630.05" cy="473.02" r="4.71"/><circle class="cls-8" cx="1891.27" cy="461.25" r="4.71"/><circle class="cls-8" cx="1900.68" cy="668.35" r="4.71"/><circle class="cls-8" cx="1634.75" cy="684.82" r="4.71"/><polygon class="cls-8" points="1682.3 519.99 1672.6 520.49 1667.52 528.75 1664.05 519.69 1654.62 517.4 1662.17 511.3 1661.42 501.63 1669.56 506.92 1678.53 503.23 1676.01 512.6 1682.3 519.99"/><polygon class="cls-8" points="1756.09 557.67 1747.2 575.17 1756.59 592.42 1737.19 589.38 1723.69 603.63 1720.58 584.25 1702.85 575.81 1720.33 566.87 1722.88 547.4 1736.78 561.26 1756.09 557.67"/><polygon class="cls-8" points="1836.28 521.6 1835.58 533.02 1844.59 540.07 1833.52 542.93 1829.6 553.68 1823.45 544.03 1812.02 543.63 1819.3 534.8 1816.15 523.8 1826.8 527.99 1836.28 521.6"/><polygon class="cls-8" points="1832.52 621.72 1835.05 637.57 1849.55 644.47 1835.26 651.77 1833.17 667.69 1821.81 656.36 1806.03 659.3 1813.29 644.99 1805.62 630.88 1821.48 633.37 1832.52 621.72"/><polygon class="cls-8" points="1784.61 496.31 1779.51 502.49 1781.71 510.2 1774.25 507.26 1767.6 511.73 1768.1 503.73 1761.79 498.79 1769.55 496.78 1772.3 489.25 1776.6 496.02 1784.61 496.31"/><polygon class="cls-8" points="1694.73 619.71 1689.89 634.59 1699.41 647 1683.77 647 1674.9 659.88 1670.07 645.01 1655.08 640.56 1667.73 631.37 1667.33 615.73 1679.98 624.92 1694.73 619.71"/><polygon class="cls-5" points="1524 486 1561 496 1564 633 1527 621 1524 486"/><polygon class="cls-9" points="1531.29 487.97 1524 486 1527 621 1564 633 1563.83 625.14 1535 616 1531.29 487.97"/></g><g id="Code"><path class="cls-10" d="M1310.81,613.4l-5.57-2.56a19.29,19.29,0,0,1-8.73-7.84,28,28,0,0,1-3.58-13l-.51-9.21a27.53,27.53,0,0,1,2.14-13.15,19.33,19.33,0,0,1,7.82-8.67,27.9,27.9,0,0,1,12.92-3.55,31.07,31.07,0,0,1,8.27.6,24.79,24.79,0,0,1,7.1,2.66,18.92,18.92,0,0,1,5.38,4.57l-7.53,7.55a16.35,16.35,0,0,0-5.78-3.84,15.62,15.62,0,0,0-6.71-1.09q-6.36.35-9.66,4.1t-3,10.21l.51,9.22q.36,6.63,4,10.05t10.09,3.06a14.91,14.91,0,0,0,6.6-1.93,16.18,16.18,0,0,0,5.25-4.72l8.34,7.22a19.3,19.3,0,0,1-4.91,5,24.33,24.33,0,0,1-6.76,3.38,31.93,31.93,0,0,1-8.11,1.47Z"/><path class="cls-10" d="M1359.7,607.85a18.92,18.92,0,0,1-8.36-7.9,29.36,29.36,0,0,1-3.44-13l-.5-9.11a28.83,28.83,0,0,1,2-13.17,18.85,18.85,0,0,1,7.44-8.68,28.89,28.89,0,0,1,24.9-1.37,18.77,18.77,0,0,1,8.35,7.82,28.77,28.77,0,0,1,3.44,12.86l.51,9.27a29,29,0,0,1-2,13.22,19,19,0,0,1-7.45,8.71,28.6,28.6,0,0,1-24.89,1.37Zm20.75-12.39q3-3.78,2.59-10.3l-.51-9.27q-.36-6.52-3.7-9.91c-2.24-2.25-5.27-3.28-9.12-3.06s-6.75,1.56-8.72,4-2.84,5.91-2.6,10.25l.51,9.27q.36,6.53,3.71,10t9.12,3.12Q1377.49,599.25,1380.45,595.46Z"/><path class="cls-10" d="M1407.88,551.14l11-.61,3.08,56-11,.6ZM1443,571.31c-.21-3.95-1.41-6.95-3.57-9s-5.1-3-8.8-2.76-6.32,1.31-8.17,3.32-2.69,4.74-2.5,8.19l-1.72-10.72a20.08,20.08,0,0,1,6.33-8.19,16.45,16.45,0,0,1,9.09-3.25q9.1-.51,14.42,5.18t5.92,16.57l1.86,34-11,.6Z"/><path class="cls-10" d="M1487.47,603.68l-4.39-.73a34.15,34.15,0,0,1-8.27-2.46,32.16,32.16,0,0,1-7.22-4.47l6.08-8.39a37.18,37.18,0,0,0,9.29,4.68,24.36,24.36,0,0,0,8.93,1.24q6.52-.36,9.67-2.56a6.68,6.68,0,0,0,2.93-6.24,4.79,4.79,0,0,0-2-4,10.12,10.12,0,0,0-4.52-1.56q-2.67-.32-7.48-.43c-.29,0-.6,0-.92,0s-.63,0-.92,0h-.87a44,44,0,0,1-9.3-1.08,12.58,12.58,0,0,1-6.52-4q-2.68-3-3-9a18.5,18.5,0,0,1,1.89-10,14.79,14.79,0,0,1,6.89-6.3,32,32,0,0,1,11.91-2.63,42,42,0,0,1,8.38.35,36.74,36.74,0,0,1,14.87,5.62l-6.18,8.39a37.35,37.35,0,0,0-8.5-3.59,25.28,25.28,0,0,0-8-.91q-5.61.31-8.31,2.38a6.51,6.51,0,0,0-2.48,5.89,3.89,3.89,0,0,0,1.77,3.31,9.27,9.27,0,0,0,4.1,1.29q2.45.24,6.94.27a3.72,3.72,0,0,0,.67,0,6,6,0,0,1,.73,0l.33,0a.91.91,0,0,1,.32,0,47.48,47.48,0,0,1,10.09,1,13.48,13.48,0,0,1,7.18,4.31q3,3.34,3.36,10a18,18,0,0,1-2,10.14,15.6,15.6,0,0,1-7.46,6.39,36.89,36.89,0,0,1-13,2.71Z"/><path class="cls-10" d="M1522.46,544.84l25.22-1.39.54,9.92L1523,554.75Zm11.8,52q-3.36-3.57-3.76-10.9l-3.17-57.67,11-.6,3.18,57.77a5.29,5.29,0,0,0,1,3.11,2.77,2.77,0,0,0,2.43,1l5.29-.29.57,10.45-6.36.35Q1537.62,600.39,1534.26,596.81Z"/><path class="cls-11" d="M1454,777l18,8.53,49.85,132.22L1484,911l-19.72-99.79-36,107.23L1390,911Zm-23.57,94.64,69.76-.51.13,17.69-69.76.51Z"/><path class="cls-11" d="M1539,777l18.74,7.91,1,132.57L1522,911Zm28.07,137.55a24.8,24.8,0,0,1-9.75-11.92l1.13-19.8a22.61,22.61,0,0,0,2.27,10.38,15.16,15.16,0,0,0,6.38,6.52,20.64,20.64,0,0,0,10.09,2.21q9.21-.08,14.23-5.71t4.95-15.86l-.15-20.52q-.08-10.4-5.18-16.1t-14.31-5.64a21.33,21.33,0,0,0-10.06,2.26,14.65,14.65,0,0,0-6.29,6.48,21.89,21.89,0,0,0-2.12,10.18l-2-18.22a33,33,0,0,1,11.13-12.9,27.61,27.61,0,0,1,15.37-4.62q10-.07,17.22,4.39a28.33,28.33,0,0,1,11,13.09q3.79,8.64,3.89,20.86l.15,20.6q.09,12-3.68,20.64A28.51,28.51,0,0,1,1600.17,914q-7.35,4.56-17.66,4.64A27.86,27.86,0,0,1,1567.07,914.55Z"/><path class="cls-11" d="M1641,815l18.59,7.09.69,94.65L1624,909Zm46,24.77a22.54,22.54,0,0,0-8.68-1.49q-8.85.06-13.69,5t-4.78,13.57l-2-18.22A34.75,34.75,0,0,1,1669,825.35a26.71,26.71,0,0,1,15.28-4.8,34.48,34.48,0,0,1,11.73,1.78,26.29,26.29,0,0,1,9.21,5.45l-12,16.5A15.64,15.64,0,0,0,1687,839.77Z"/><path class="cls-11" d="M1725.44,910.38q-8.73-7.18-8.83-22-.1-14,7.78-21.13t23.93-7.19l26.9-.2,1.39,15-28.09.2q-7.29.06-10.87,3.32t-3.53,9.92c0,4.8,1.66,8.34,4.86,10.63s8.07,3.41,14.57,3.36q10.68-.07,15.9-2.4t5.19-7.15l2,13.3a21.72,21.72,0,0,1-6,6.34,26.31,26.31,0,0,1-8.31,3.75,42.32,42.32,0,0,1-10.66,1.31Q1734.16,917.58,1725.44,910.38Zm48.93-54.47q-.07-9.3-5.08-14.42t-14.12-5a36.35,36.35,0,0,0-11.07,1.81,33,33,0,0,0-9.58,4.91L1717,834c3.56-4.34,12.12-7.78,18-10.22A51.22,51.22,0,0,1,1754.5,820q11.76-.07,20.18,4a28.83,28.83,0,0,1,12.86,12q4.43,7.85,4.51,19l.45,60.82-17.69.12Z"/><path class="cls-11" d="M1846,916.75l-9.2-4.76a32.77,32.77,0,0,1-14.1-13.94q-4.89-9.18-5-22.22l-.12-15.59q-.09-12.86,4.68-22a32.51,32.51,0,0,1,13.89-14q9.13-4.85,22.08-5a53.11,53.11,0,0,1,13.92,1.68,41.08,41.08,0,0,1,11.75,5.07,31.88,31.88,0,0,1,8.72,8.14l-13.31,12.13a27.92,27.92,0,0,0-9.45-6.95,26.7,26.7,0,0,0-11.23-2.38q-10.76.07-16.64,6.14t-5.8,17l.11,15.6q.08,11.2,6,17.28t16.77,6a25.18,25.18,0,0,0,11.29-2.72,27.47,27.47,0,0,0,9.25-7.55l13.5,12.85a33.34,33.34,0,0,1-8.7,8.14,41.08,41.08,0,0,1-11.68,5.14,53.66,53.66,0,0,1-13.8,1.84Z"/><path class="cls-11" d="M1917.83,909q-8.71-7.18-8.82-22-.1-14,7.78-21.12t23.93-7.2l26.9-.19,1.38,14.94-28.08.21q-7.31,0-10.88,3.31t-3.53,9.92q.06,7.22,4.87,10.63t14.57,3.36q10.66-.07,15.89-2.39t5.2-7.15l2,13.3a21.94,21.94,0,0,1-6,6.33,26.51,26.51,0,0,1-8.32,3.76,42.72,42.72,0,0,1-10.66,1.31Q1926.55,916.16,1917.83,909Zm48.94-54.48q-.07-9.3-5.08-14.42t-14.13-5a36,36,0,0,0-11.06,1.81,33,33,0,0,0-9.59,4.9l-13.65-9.2a35.56,35.56,0,0,1,14.11-10.18,51.14,51.14,0,0,1,19.53-3.74q11.76-.09,20.18,4a28.73,28.73,0,0,1,12.85,11.94q4.44,7.86,4.52,19l.44,60.82-17.69.13Z"/><path class="cls-11" d="M2025.4,911.2a28.48,28.48,0,0,1-11.26-13.09q-3.9-8.64-4-20.77l-.16-20.88q-.09-12.21,3.59-20.9a28.28,28.28,0,0,1,10.8-13.26,31.61,31.61,0,0,1,17.15-4.64,28.36,28.36,0,0,1,15.4,4.26,32.35,32.35,0,0,1,11.35,12.23l-1.77,19.35a22.46,22.46,0,0,0-2.27-10.29,14.93,14.93,0,0,0-6.38-6.47,21,21,0,0,0-10.09-2.16q-9.21.06-14.23,5.84t-4.94,16.18l.15,20.61q.08,10.31,5.17,15.87t14.31,5.51a20.31,20.31,0,0,0,10.06-2.4,15.34,15.34,0,0,0,6.29-6.75,23.19,23.19,0,0,0,2.11-10.5l1.43,20a27,27,0,0,1-9.17,11.83q-6.4,4.78-15.79,4.85Q2032.78,915.66,2025.4,911.2ZM2066,773l18.59,8,1,132.58L2067,904Z"/><path class="cls-11" d="M2117.89,907.51q-8.71-7.18-8.83-22-.11-14,7.78-21.12t23.93-7.2l26.9-.2,1.39,15-28.09.2q-7.29.06-10.87,3.32t-3.53,9.92c0,4.8,1.66,8.35,4.86,10.63s8.07,3.41,14.57,3.36q10.68-.07,15.9-2.39t5.19-7.15l2,13.29a21.72,21.72,0,0,1-6,6.34,26.31,26.31,0,0,1-8.31,3.75,42.32,42.32,0,0,1-10.66,1.31Q2126.61,914.71,2117.89,907.51ZM2166.82,853q-.06-9.3-5.07-14.42t-14.13-5a36.36,36.36,0,0,0-11.07,1.82,32.69,32.69,0,0,0-9.58,4.9l-13.66-9.2a35.53,35.53,0,0,1,14.11-10.18,51.22,51.22,0,0,1,19.53-3.75q11.76-.07,20.18,4a28.83,28.83,0,0,1,12.86,12q4.43,7.85,4.51,19l.45,60.82-17.69.13Z"/><path class="cls-11" d="M2212,772l18.85,8,1,132.58L2195,904Zm28.18,137.63a24.91,24.91,0,0,1-9.75-11.92l1.13-19.8a22.61,22.61,0,0,0,2.27,10.38,15.16,15.16,0,0,0,6.38,6.52A20.64,20.64,0,0,0,2250.3,897q9.21-.07,14.23-5.71t4.95-15.86l-.15-20.52q-.07-10.39-5.18-16.1t-14.31-5.64a21.36,21.36,0,0,0-10.06,2.26,14.7,14.7,0,0,0-6.29,6.48,22,22,0,0,0-2.12,10.18l-2-18.22a32.82,32.82,0,0,1,11.12-12.9,27.62,27.62,0,0,1,15.38-4.62q10-.07,17.22,4.39a28.37,28.37,0,0,1,11,13.09q3.8,8.64,3.89,20.86l.15,20.6q.09,12-3.68,20.64a28.51,28.51,0,0,1-11.12,13.17q-7.35,4.56-17.65,4.64A27.87,27.87,0,0,1,2240.18,909.63Z"/><path class="cls-11" d="M2314.1,817.31l18.6-.14.69,94.65L2297,905Zm46,17.54a22.29,22.29,0,0,0-8.68-1.49q-8.84.06-13.68,5T2333,851.91l-2.05-18.22a34.75,34.75,0,0,1,11.21-13.26,26.71,26.71,0,0,1,15.28-4.8,34.48,34.48,0,0,1,11.73,1.78,26.2,26.2,0,0,1,9.21,5.45l-12,16.5A15.64,15.64,0,0,0,2360.1,834.85Z"/><path class="cls-11" d="M2398.55,905.46q-8.72-7.19-8.83-22-.1-14,7.78-21.13t23.93-7.19l26.9-.2,1.39,15-28.09.2q-7.29.06-10.87,3.32t-3.53,9.92q.06,7.2,4.87,10.63t14.56,3.36q10.68-.07,15.9-2.4t5.19-7.15l2,13.3a21.72,21.72,0,0,1-6,6.34,26.31,26.31,0,0,1-8.31,3.75,42.32,42.32,0,0,1-10.66,1.31Q2407.27,912.66,2398.55,905.46ZM2447.48,851q-.06-9.3-5.07-14.42t-14.13-5.05a36.35,36.35,0,0,0-11.07,1.81c-3.6,1.19-24.43-4.42-27.21-2.33l-15-11c3.55-4.34,27.23,1.3,33.08-1.14a51.22,51.22,0,0,1,19.53-3.75q11.78-.08,20.18,4a28.83,28.83,0,0,1,12.86,11.95q4.42,7.85,4.51,19l.45,60.81-17.69.13Z"/><path class="cls-12" d="M1438.13,777.62l15.87-.12,49.84,132.22-20.06.15-37.53-106.69-36,107.23-20.06.15Zm-25.72,86,69.75-.51.13,17.69-69.75.51Z"/><path class="cls-12" d="M1521.11,777l18.6-.13,1,132.58-18.6.13Zm27.94,129.51a24.82,24.82,0,0,1-9.76-11.92l1.14-19.79a22.67,22.67,0,0,0,2.26,10.38,15.19,15.19,0,0,0,6.38,6.51,20.65,20.65,0,0,0,10.1,2.21q9.21-.06,14.23-5.71t4.94-15.86l-.15-20.52q-.07-10.4-5.18-16.1t-14.31-5.64a21.51,21.51,0,0,0-10.06,2.26,14.7,14.7,0,0,0-6.29,6.48,21.89,21.89,0,0,0-2.11,10.18l-2-18.22a32.78,32.78,0,0,1,11.12-12.89,27.57,27.57,0,0,1,15.38-4.63q10-.07,17.22,4.39a28.37,28.37,0,0,1,11,13.09q3.8,8.64,3.89,20.86l.15,20.61q.09,12-3.68,20.63A28.45,28.45,0,0,1,1582.14,906q-7.35,4.56-17.65,4.64A27.73,27.73,0,0,1,1549.05,906.52Z"/><path class="cls-12" d="M1623,814.2l18.6-.13.7,94.64-18.61.14Zm46,17.54a22.47,22.47,0,0,0-8.68-1.49q-8.83.06-13.68,5t-4.78,13.58l-2-18.23A34.73,34.73,0,0,1,1651,817.33a26.67,26.67,0,0,1,15.28-4.81A34.83,34.83,0,0,1,1678,814.3a26.25,26.25,0,0,1,9.2,5.45l-12,16.5A15.5,15.5,0,0,0,1669,831.74Z"/><path class="cls-12" d="M1707.41,902.36q-8.72-7.18-8.83-22-.09-14,7.78-21.12t23.93-7.2l26.9-.2,1.39,15-28.09.2q-7.29.06-10.87,3.32t-3.53,9.92q.06,7.2,4.87,10.63t14.57,3.36q10.67-.07,15.89-2.39c3.48-1.55,5.22-3.93,5.19-7.15l2,13.29a21.82,21.82,0,0,1-6,6.34,26.37,26.37,0,0,1-8.32,3.75,42.32,42.32,0,0,1-10.66,1.31Q1716.13,909.55,1707.41,902.36Zm48.93-54.48q-.06-9.3-5.07-14.42t-14.13-5.05a36.25,36.25,0,0,0-11.06,1.82,32.75,32.75,0,0,0-9.59,4.9l-13.65-9.2a35.43,35.43,0,0,1,14.1-10.18,51.22,51.22,0,0,1,19.53-3.75q11.77-.07,20.19,4A28.78,28.78,0,0,1,1769.51,828q4.44,7.86,4.52,19l.44,60.82-17.69.13Z"/><path class="cls-12" d="M1828,908.72l-9.2-4.76A32.7,32.7,0,0,1,1804.71,890q-4.9-9.18-5-22.22l-.11-15.59q-.11-12.86,4.67-22a32.62,32.62,0,0,1,13.89-14q9.13-4.85,22.08-4.94a52.7,52.7,0,0,1,13.92,1.67,41.65,41.65,0,0,1,11.75,5.07,32.06,32.06,0,0,1,8.73,8.14l-13.32,12.14a28,28,0,0,0-9.44-7,26.75,26.75,0,0,0-11.24-2.38q-10.76.09-16.64,6.14t-5.8,17l.11,15.59q.09,11.22,6,17.28t16.78,6a25.28,25.28,0,0,0,11.28-2.73,27.46,27.46,0,0,0,9.25-7.54l13.5,12.85a33.3,33.3,0,0,1-8.7,8.13,41,41,0,0,1-11.68,5.14,53.6,53.6,0,0,1-13.8,1.84Z"/><path class="cls-12" d="M1899.8,901q-8.71-7.19-8.82-22-.11-14,7.78-21.12t23.93-7.2l26.9-.19,1.38,14.94-28.08.21q-7.29,0-10.87,3.32t-3.53,9.91q0,7.21,4.86,10.64t14.57,3.36q10.66-.09,15.9-2.4t5.19-7.15l2,13.3a21.68,21.68,0,0,1-6,6.33,26.55,26.55,0,0,1-8.31,3.76A42.78,42.78,0,0,1,1926,908Q1908.51,908.13,1899.8,901Zm48.94-54.48q-.08-9.3-5.08-14.41t-14.12-5a36,36,0,0,0-11.07,1.81,32.93,32.93,0,0,0-9.58,4.9l-13.66-9.2a35.63,35.63,0,0,1,14.11-10.18,51.21,51.21,0,0,1,19.53-3.74q11.76-.09,20.18,4a28.86,28.86,0,0,1,12.86,11.94q4.42,7.86,4.51,19l.45,60.82-17.69.13Z"/><path class="cls-12" d="M2007.38,903.17a28.44,28.44,0,0,1-11.27-13.09q-3.9-8.64-4-20.76l-.16-20.89q-.08-12.21,3.59-20.9a28.33,28.33,0,0,1,10.8-13.26q7.13-4.56,17.16-4.64a28.28,28.28,0,0,1,15.39,4.27,32.24,32.24,0,0,1,11.35,12.22l-1.77,19.35a22.46,22.46,0,0,0-2.26-10.29,15,15,0,0,0-6.39-6.47,21,21,0,0,0-10.09-2.16q-9.21.06-14.23,5.85t-4.94,16.17l.15,20.61q.07,10.3,5.18,15.87t14.31,5.51a20.36,20.36,0,0,0,10.06-2.4,15.32,15.32,0,0,0,6.28-6.75,23.06,23.06,0,0,0,2.11-10.5l1.43,20a27,27,0,0,1-9.17,11.83q-6.39,4.78-15.79,4.86Q2014.75,907.64,2007.38,903.17Zm40.58-130,18.6-.13,1,132.57-18.6.14Z"/><path class="cls-12" d="M2099.86,899.49q-8.71-7.18-8.83-22-.09-14,7.78-21.12t23.93-7.2l26.9-.19L2151,864l-28.09.21q-7.29,0-10.87,3.31t-3.53,9.92q.06,7.2,4.87,10.63t14.57,3.36q10.67-.07,15.89-2.39t5.19-7.15l2,13.3a21.91,21.91,0,0,1-6,6.33,26.37,26.37,0,0,1-8.32,3.75,41.87,41.87,0,0,1-10.66,1.31Q2108.57,906.68,2099.86,899.49ZM2148.79,845q-.06-9.3-5.07-14.42t-14.13-5.05a36.25,36.25,0,0,0-11.06,1.82,32.75,32.75,0,0,0-9.59,4.9l-13.65-9.2a35.52,35.52,0,0,1,14.1-10.18,51.21,51.21,0,0,1,19.53-3.74q11.77-.09,20.19,4A28.78,28.78,0,0,1,2162,825.08q4.44,7.86,4.52,19l.44,60.82-17.69.13Z"/><path class="cls-12" d="M2194.22,772.09l18.6-.13,1,132.58-18.6.13Zm27.94,129.51a24.82,24.82,0,0,1-9.76-11.92l1.13-19.79a22.59,22.59,0,0,0,2.27,10.37,15.16,15.16,0,0,0,6.38,6.52,20.65,20.65,0,0,0,10.1,2.21q9.21-.07,14.22-5.71t4.95-15.86l-.15-20.52q-.08-10.39-5.18-16.1t-14.31-5.64a21.36,21.36,0,0,0-10.06,2.26,14.7,14.7,0,0,0-6.29,6.48,21.89,21.89,0,0,0-2.11,10.18l-2-18.22A32.78,32.78,0,0,1,2222.42,813a27.57,27.57,0,0,1,15.38-4.63q10-.08,17.22,4.39a28.37,28.37,0,0,1,11,13.09q3.79,8.64,3.89,20.86l.15,20.6q.09,12-3.68,20.64a28.51,28.51,0,0,1-11.12,13.17q-7.35,4.56-17.65,4.64A27.73,27.73,0,0,1,2222.16,901.6Z"/><path class="cls-12" d="M2296.07,809.28l18.6-.14.69,94.65-18.6.14Zm46,17.54a22.47,22.47,0,0,0-8.68-1.49q-8.83.06-13.68,5t-4.78,13.57l-2-18.22a34.75,34.75,0,0,1,11.21-13.26,26.71,26.71,0,0,1,15.28-4.8,34.73,34.73,0,0,1,11.73,1.78,26.2,26.2,0,0,1,9.21,5.45l-12,16.5A15.57,15.57,0,0,0,2342.07,826.82Z"/><path class="cls-12" d="M2380.52,897.43q-8.71-7.18-8.83-21.95-.09-14,7.78-21.12t23.93-7.2l26.9-.2,1.39,14.95-28.09.2q-7.29.06-10.87,3.32t-3.53,9.92q.06,7.2,4.87,10.63t14.56,3.36q10.68-.08,15.9-2.39t5.19-7.16l2,13.3a21.82,21.82,0,0,1-6,6.34,26.37,26.37,0,0,1-8.32,3.75,42.32,42.32,0,0,1-10.66,1.31Q2389.24,904.63,2380.52,897.43ZM2429.45,843q-.06-9.3-5.07-14.42t-14.13-5a36.25,36.25,0,0,0-11.06,1.82,32.75,32.75,0,0,0-9.59,4.9L2376,821a35.43,35.43,0,0,1,14.1-10.18,51.22,51.22,0,0,1,19.53-3.75q11.77-.08,20.19,4A28.86,28.86,0,0,1,2442.62,823q4.44,7.85,4.51,19l.45,60.82-17.69.13Z"/><path class="cls-13" d="M2256.21,527.47l10.84,1.91-4.78,27.11-10.84-1.91Zm16.53,2.91,10.84,1.92-4.77,27.11L2268,557.49Z"/><path class="cls-13" d="M2293.3,556.81l10.84,1.91-9.72,55.17L2283.57,612Zm29.12,27.55q1-5.85-1.27-9.55t-7.57-4.62c-3.55-.62-6.45-.17-8.71,1.37s-3.7,4-4.3,7.41l.76-10.83a20,20,0,0,1,8-6.53,16.47,16.47,0,0,1,9.59-1.1,18.2,18.2,0,0,1,9.43,4.37,16.78,16.78,0,0,1,4.89,8.78,31.6,31.6,0,0,1,0,12.55l-5.9,33.49-10.85-1.91Zm33,5.81q1-5.85-1.44-9.58t-7.94-4.68c-3.37-.6-6.15,0-8.36,1.7s-3.64,4.48-4.3,8.23l-.3-11a21.46,21.46,0,0,1,8.38-7.27,16.33,16.33,0,0,1,10-1.34,19.2,19.2,0,0,1,9.72,4.43,16.81,16.81,0,0,1,5.07,8.81,30.67,30.67,0,0,1,.06,12.56l-5.9,33.49-10.84-1.91Z"/><path class="cls-13" d="M2380.13,625.47q-4.3-5.13-2.79-13.73,1.44-8.19,6.79-11.47t14.7-1.62l15.68,2.76-.79,8.85-16.37-2.89q-4.26-.75-6.69.77t-3.11,5.4c-.5,2.8.07,5,1.69,6.71s4.33,2.84,8.12,3.51q6.22,1.1,9.51.31t3.79-3.61l-.25,8a12.87,12.87,0,0,1-4.18,3,15.58,15.58,0,0,1-5.25,1.3,25.12,25.12,0,0,1-6.34-.38Q2384.43,630.58,2380.13,625.47ZM2414.45,599q.95-5.43-1.42-8.94c-1.57-2.34-4.14-3.83-7.68-4.45a21.42,21.42,0,0,0-6.64-.13,19.35,19.35,0,0,0-6.1,1.83l-7-6.82a21,21,0,0,1,9.31-4.41,30.35,30.35,0,0,1,11.77-.1,26.84,26.84,0,0,1,11.32,4.49,17.12,17.12,0,0,1,6.2,8.33,22.81,22.81,0,0,1,.6,11.54l-6.25,35.45L2408.28,634Z"/><path class="cls-13" d="M2443.56,663.31l-4.51-3.18a18.29,18.29,0,0,1-6.48-7.85l8.51-5.36a15.38,15.38,0,0,0,4.28,5.42,13,13,0,0,0,5.91,2.68q6.22,1.1,10.23-1.73t5.11-9.1l9.71-55.13,10.85,1.92-9.44,53.52a28.67,28.67,0,0,1-5.08,12.54,19.28,19.28,0,0,1-9.56,6.81,27.52,27.52,0,0,1-13.31.56Zm-.88-25a16.93,16.93,0,0,1-5.16-8.83,30.4,30.4,0,0,1-.09-12.51l2.14-12.18A31.11,31.11,0,0,1,2443.9,593a16.79,16.79,0,0,1,7.7-6.57,18.71,18.71,0,0,1,10.49-.86,16.7,16.7,0,0,1,8.5,4.13,19.13,19.13,0,0,1,5.3,8.33l-3.1,11.07a13.26,13.26,0,0,0-.22-6.23,8.79,8.79,0,0,0-3-4.45,12.51,12.51,0,0,0-5.64-2.34q-5.37-.95-8.91,1.89c-2.36,1.88-3.9,4.85-4.61,8.88l-2.12,12q-1.07,6,1.31,9.79t7.75,4.74a12,12,0,0,0,6.11-.32,9.11,9.11,0,0,0,4.38-3.26,13.75,13.75,0,0,0,2.36-5.88l-1.31,11.77a16,16,0,0,1-6.6,5.9,15.25,15.25,0,0,1-9.71,1.14A19.62,19.62,0,0,1,2442.68,638.3Z"/><path class="cls-13" d="M2504.05,594l10.84,1.91L2505.17,651l-10.84-1.91Zm3.9-22.11,10.84,1.91-1.91,10.84L2506,582.68Z"/><path class="cls-13" d="M2536.48,657.38l-4.84-3.76a19.34,19.34,0,0,1-6.72-9.62,28,28,0,0,1-.53-13.47l1.6-9.09a27.32,27.32,0,0,1,5.08-12.31,19.19,19.19,0,0,1,9.59-6.67,27.94,27.94,0,0,1,13.38-.52,31.59,31.59,0,0,1,7.92,2.46,24.77,24.77,0,0,1,6.3,4.21,19,19,0,0,1,4.21,5.68l-9,5.63a16.51,16.51,0,0,0-4.75-5,15.77,15.77,0,0,0-6.29-2.59q-6.27-1.11-10.35,1.79t-5.19,9.28l-1.61,9.09q-1.14,6.54,1.65,10.71t9.13,5.28a15,15,0,0,0,6.86-.38,16.28,16.28,0,0,0,6.19-3.41l6.49,8.93a19.54,19.54,0,0,1-5.94,3.8,24.28,24.28,0,0,1-7.35,1.75,31.57,31.57,0,0,1-8.23-.41Z"/><path class="cls-13" d="M2585.14,585.44l10.84,1.91-4.78,27.11-10.84-1.91Zm16.53,2.92,10.84,1.91-4.77,27.11-10.85-1.91Z"/></g><g id="Small_box" data-name="Small box"><polygon class="cls-5" points="1989 685.77 2006.06 442.01 2054.62 401 2214.1 414.67 2268.77 464.79 2248.27 704 1989 685.77"/><polygon class="cls-14" points="2006.06 442.01 2268.77 464.79 2214.1 414.67 2054.62 401 2006.06 442.01"/><polygon class="cls-7" points="2036.4 434.89 2070.57 407.56 2204.99 418.95 2241.44 455.4 2036.4 434.89"/><path class="cls-7" d="M2234.6,485.29a13.4,13.4,0,0,1,.47-3.48l-198.73-18.06a13.67,13.67,0,0,1-13.61,12.43c-.31,0-.61,0-.91-.05L2010,653.93a13.66,13.66,0,0,1,12.76,13.62c0,.29,0,.57,0,.85l193.72,12.11a13.66,13.66,0,0,1,12.77-12.92l17.45-168.73A13.68,13.68,0,0,1,2234.6,485.29Z"/><polygon class="cls-8" points="2092.11 535.99 2068.46 532.49 2052.17 549.99 2048.18 526.42 2026.5 516.33 2047.69 505.26 2050.59 481.52 2067.67 498.25 2091.14 493.67 2080.5 515.08 2092.11 535.99"/><polygon class="cls-8" points="2098.93 618.69 2088.78 625.78 2088.86 638.16 2078.99 630.7 2067.24 634.6 2071.28 622.9 2063.94 612.94 2076.32 613.17 2083.53 603.11 2087.13 614.95 2098.93 618.69"/><polygon class="cls-8" points="2158.86 574.4 2140.3 567.34 2123.96 578.63 2124.94 558.8 2109.16 546.75 2128.32 541.55 2134.9 522.82 2145.77 539.44 2165.62 539.91 2153.17 555.38 2158.86 574.4"/><polygon class="cls-8" points="2174.49 652.57 2175.79 657.43 2180.53 659.12 2176.3 661.86 2176.16 666.89 2172.26 663.72 2167.43 665.14 2169.24 660.44 2166.39 656.29 2171.42 656.55 2174.49 652.57"/><polygon class="cls-8" points="2171.88 609.58 2171.89 617.66 2178.55 622.25 2170.86 624.75 2168.57 632.5 2163.81 625.96 2155.72 626.17 2160.47 619.63 2157.77 612 2165.47 614.5 2171.88 609.58"/><polygon class="cls-8" points="2212.27 507.96 2200.39 509.04 2194.54 519.45 2189.84 508.48 2178.14 506.13 2187.11 498.27 2185.73 486.42 2195.98 492.53 2206.82 487.55 2204.18 499.18 2212.27 507.96"/><circle class="cls-8" cx="2025.27" cy="466.25" r="4.71"/><circle class="cls-8" cx="2246.27" cy="486.25" r="4.71"/><circle class="cls-8" cx="2231.27" cy="678.25" r="4.71"/><circle class="cls-8" cx="2010.27" cy="667.25" r="4.71"/></g><g id="Saw"><polygon class="cls-15" points="1838.97 156.99 2160.62 409.29 2119.31 466.19 2111.4 449.27 2100.85 457.84 2092.94 440.92 2076.02 448.83 2071.63 429.05 2058.22 434.1 1889.92 349.05 1888.06 335.97 1873 343 1869.6 327.62 1853.01 332.34 1851.47 316.08 1837.74 324.32 1795.44 297.4 1790.39 283.99 1783.36 289.7 1781.49 276.63 1770.94 285.2 1752.49 276.85 1753.26 238.28 1838.97 156.99"/><path class="cls-16" d="M1836.11,153.48c-5.71-7-105.57-68.9-117.65-76.59s-30.87-12.86-31.86-3.3,20,24.61,19,34.17-27.8,19.66-41.86,31.08-46.37,43.5-42,63.28c0,0,45.15,30.44,72.5,46.15s40.76,10.67,57.35,5.94,60-19.55,60-19.55,20.22-39.76,27.91-51.85S1841.82,160.51,1836.11,153.48Zm-46.91,17.68c-7.69,12.08-27.91,51.85-44.84,59.76s-57.67-2.75-67.78-29.56c-9-24,22.09-26.7,35.49-31.75s17.58-14.28,18.9-27,15.06-21,30.33-13S1796.89,159.08,1789.2,171.16Z"/><polygon class="cls-17" points="1925.32 366.94 2004.72 407.06 1967.28 257.64 1880.98 189.94 1925.32 366.94"/><polygon class="cls-17" points="2033.86 421.79 2052.08 431 2018.77 298.02 1998.96 282.49 2033.86 421.79"/><polygon class="cls-18" points="2064 105.81 2093.77 160.23 2148.2 190 2093.77 219.77 2064 274.19 2034.23 219.77 1979.81 190 2034.23 160.23 2064 105.81"/><polygon class="cls-19" points="1648.5 270.04 1663.16 296.84 1689.96 311.5 1663.16 326.16 1648.5 352.96 1633.84 326.16 1607.04 311.5 1633.84 296.84 1648.5 270.04"/><polygon class="cls-20" points="1964 419.17 1971.37 432.63 1984.84 440 1971.37 447.37 1964 460.83 1956.63 447.37 1943.16 440 1956.63 432.63 1964 419.17"/><polygon class="cls-21" points="2195 361.81 2203.55 377.45 2219.19 386 2203.55 394.55 2195 410.19 2186.45 394.55 2170.81 386 2186.45 377.45 2195 361.81"/></g></g></svg>